<svg width="1000" height="306" viewBox="0 0 1000 306" fill="none" xmlns="http://www.w3.org/2000/svg">
<rect width="304.838" height="305.093" rx="152.419" fill="#151A20"/>
<path d="M252.422 52.4731C225.698 25.7208 190.198 11 152.433 11C74.4411 11 11 74.4977 11 152.546C11 230.595 74.4411 294.093 152.433 294.093C190.198 294.093 225.726 279.372 252.422 252.62C279.146 225.867 293.838 190.339 293.838 152.546C293.838 114.754 279.146 79.1971 252.422 52.4731ZM152.433 284.298C79.8482 284.298 20.795 225.188 20.795 152.546C20.795 79.9048 79.8482 20.795 152.433 20.795C225.018 20.795 284.071 79.9048 284.071 152.546C284.071 225.188 225.018 284.298 152.433 284.298Z" fill="white"/>
<path d="M198.862 155.887C189.803 147.791 177.941 142.384 166.447 137.147L166.363 137.118C146.093 127.861 128.57 119.85 129.815 100.911C130.353 93.6918 135.59 89.3321 139.893 86.9825C144.734 84.3214 151.16 82.7361 157.105 82.7361C157.813 82.7361 158.521 82.7644 159.2 82.7927C176.497 83.9534 190.142 91.2855 203.476 106.516L204.269 107.45L205.203 106.657L210.412 102.128L211.346 101.307L210.525 100.373C195.663 83.3306 179.526 74.7529 159.795 73.4223C158.945 73.3374 158.04 73.3091 157.049 73.3091C156.454 73.3091 155.803 73.3091 155.124 73.3374H154.274C141.337 73.3374 127.154 77.5838 116.368 84.7177C103.488 93.2388 96.2687 104.959 96.0706 117.726C95.561 148.782 120.954 159.228 143.347 168.485L143.404 168.513L143.63 168.598C163.447 176.808 180.545 183.885 180.177 202.852C180.008 215.365 162.116 222.273 149.83 222.273H149.32H148.103V222.301C129.787 221.763 113.424 213.865 99.4677 198.889L98.6184 197.983L97.7125 198.804L92.6452 203.503L91.7393 204.353L92.5885 205.259C108.442 222.329 128.003 231.501 149.179 231.756H150.141C163.815 231.756 178.677 228.076 189.888 221.876C203.929 214.204 212.11 203.022 212.96 190.396C213.922 176.525 209.308 165.229 198.862 155.887ZM133.127 128.88C141.196 135.788 152.123 140.742 162.682 145.526L162.88 145.611C174.063 150.763 184.65 155.632 192.322 162.398C200.815 169.872 204.41 178.535 203.646 189.66C202.938 200.673 194.757 208.033 187.311 212.478C188.755 209.533 189.548 206.334 189.633 202.937C189.803 191.5 185.415 182.356 176.186 174.939C168.118 168.457 157.417 164.069 147.056 159.794C125.512 150.933 105.158 142.554 105.526 117.811C105.639 108.299 111.358 99.297 121.634 92.4745C121.974 92.248 122.313 92.0215 122.681 91.7951C121.464 94.4561 120.785 97.2304 120.615 100.146C119.794 111.612 123.899 121.01 133.127 128.88Z" fill="white"/>
<path d="M439.909 111.459L446.484 98.3092C436.841 91.9533 423.472 87.7891 409.664 87.7891C388.624 87.7891 369.556 97.2134 369.556 119.13C369.337 159.896 433.992 145.65 433.334 173.703C433.115 185.319 422.157 190.579 408.568 190.579C394.98 190.579 380.076 185.1 370.214 175.895L363.639 188.388C374.597 198.908 391.473 204.606 407.911 204.606C430.047 204.606 450.21 194.524 450.21 171.95C450.21 130.527 385.775 143.896 385.775 117.815C385.775 106.857 395.637 102.254 408.568 102.254C419.308 102.254 430.923 105.761 439.909 111.459Z" fill="#151A20"/>
<path d="M523.878 88.0083C490.346 88.2275 466.675 111.898 466.675 146.307C466.675 180.717 490.126 204.606 524.098 204.606C543.384 204.606 559.603 197.593 570.561 185.538L561.137 175.676C552.151 185.1 539.659 190.36 525.413 190.36C502.838 190.36 486.401 175.457 483.551 152.663H577.794C579.547 113.651 561.137 88.0083 523.878 88.0083ZM483.551 139.075C485.962 116.719 501.742 102.254 523.878 102.254C546.453 102.254 561.356 116.719 562.452 139.075H483.551Z" fill="#151A20"/>
<path d="M687.793 116.939L697.217 105.103C686.697 94.3642 671.355 88.0083 652.726 88.0083C619.412 88.0083 595.523 112.117 595.523 146.307C595.523 180.717 619.193 204.606 652.726 204.606C672.67 204.606 688.669 197.154 698.97 184.662L689.108 174.58C680.998 184.223 668.506 189.483 653.383 189.483C629.494 189.483 612.399 171.95 612.399 146.307C612.399 120.884 629.494 103.35 653.383 103.35C667.41 103.35 679.026 108.391 687.793 116.939Z" fill="#151A20"/>
<path d="M747.088 114.309V88.6658H729.993V203.949H747.088V142.581C749.06 119.349 764.183 104.227 788.511 104.665V88.0083C769.005 88.2275 754.759 97.4326 747.088 114.309Z" fill="#151A20"/>
<path d="M857.126 88.0083C823.593 88.2275 799.923 111.898 799.923 146.307C799.923 180.717 823.374 204.606 857.345 204.606C876.632 204.606 892.851 197.593 903.809 185.538L894.385 175.676C885.399 185.1 872.906 190.36 858.66 190.36C836.086 190.36 819.648 175.457 816.799 152.663H911.042C912.795 113.651 894.385 88.0083 857.126 88.0083ZM816.799 139.075C819.21 116.719 834.99 102.254 857.126 102.254C879.7 102.254 894.604 116.719 895.7 139.075H816.799Z" fill="#151A20"/>
<path d="M995.178 182.908C988.822 186.634 982.686 188.607 976.768 188.826C966.906 188.826 961.426 183.128 961.426 169.101V105.542H998.028V92.1725H961.426V61.9272H944.55V92.1725H927.894V105.542H944.55V171.95C944.55 194.743 957.043 204.825 973.919 204.606C983.124 204.606 991.891 201.538 1000 196.058L995.178 182.908Z" fill="#151A20"/>
</svg>
